<?xml version="1.0" encoding="UTF-8" standalone="no"?>
<!-- Created with Inkscape (http://www.inkscape.org/) -->

<svg
   xmlns:dc="http://purl.org/dc/elements/1.1/"
   xmlns:cc="http://creativecommons.org/ns#"
   xmlns:rdf="http://www.w3.org/1999/02/22-rdf-syntax-ns#"
   xmlns:svg="http://www.w3.org/2000/svg"
   xmlns="http://www.w3.org/2000/svg"
   xmlns:sodipodi="http://sodipodi.sourceforge.net/DTD/sodipodi-0.dtd"
   xmlns:inkscape="http://www.inkscape.org/namespaces/inkscape"
   width="285.69727"
   height="115.19824"
   id="svg2918"
   version="1.1"
   inkscape:version="0.47pre4 "
   sodipodi:docname="New document 3">
  <defs
     id="defs2920">
    <inkscape:perspective
       sodipodi:type="inkscape:persp3d"
       inkscape:vp_x="0 : 526.18109 : 1"
       inkscape:vp_y="0 : 1000 : 0"
       inkscape:vp_z="744.09448 : 526.18109 : 1"
       inkscape:persp3d-origin="372.04724 : 350.78739 : 1"
       id="perspective2926" />
    <inkscape:perspective
       id="perspective2913"
       inkscape:persp3d-origin="0.5 : 0.33333333 : 1"
       inkscape:vp_z="1 : 0.5 : 1"
       inkscape:vp_y="0 : 1000 : 0"
       inkscape:vp_x="0 : 0.5 : 1"
       sodipodi:type="inkscape:persp3d" />
  </defs>
  <sodipodi:namedview
     id="base"
     pagecolor="#ffffff"
     bordercolor="#666666"
     borderopacity="1.0"
     inkscape:pageopacity="0.0"
     inkscape:pageshadow="2"
     inkscape:zoom="1.5750938"
     inkscape:cx="142.84864"
     inkscape:cy="57.59912"
     inkscape:document-units="px"
     inkscape:current-layer="layer1"
     showgrid="false"
     inkscape:window-width="1280"
     inkscape:window-height="708"
     inkscape:window-x="-4"
     inkscape:window-y="-4"
     inkscape:window-maximized="1" />
  <metadata
     id="metadata2923">
    <rdf:RDF>
      <cc:Work
         rdf:about="">
        <dc:format>image/svg+xml</dc:format>
        <dc:type
           rdf:resource="http://purl.org/dc/dcmitype/StillImage" />
        <dc:title></dc:title>
      </cc:Work>
    </rdf:RDF>
  </metadata>
  <g
     inkscape:label="Layer 1"
     inkscape:groupmode="layer"
     id="layer1"
     transform="translate(-217.15137,-657.62021)">
    <path
       d="m 502.84864,688.82211 c -2.9e-4,8.55491 -6.48075,12.83233 -19.44141,12.83229 -3.26394,4e-5 -6.19216,-0.84906 -8.78467,-2.54733 -2.59303,-1.69816 -3.88941,-3.55882 -3.88916,-5.58198 -2.5e-4,-2.09082 0.8164,-3.7402 2.44995,-4.94815 1.63305,-1.20782 3.55272,-1.81176 5.75904,-1.81183 4.4177,7e-5 6.62668,1.46906 6.62695,4.40699 -2.7e-4,1.43716 -0.4324,2.38494 -1.29639,2.84332 -0.2903,0.0638 -1.01101,0.38973 -2.16211,0.97766 0.67064,1.11028 2.06224,1.66539 4.17481,1.66534 7.20089,5e-5 10.80148,-2.61205 10.80176,-7.83631 -2.8e-4,-3.52792 -1.512,-6.28802 -4.53516,-8.2803 -3.02371,-1.99214 -7.03152,-2.98825 -12.02344,-2.98832 -9.98463,7e-5 -27.31371,8.94858 -51.9873,26.84556 l 0.43506,0.39166 c 4.5115,-1.56661 8.73464,-2.34995 12.66943,-2.34999 5.5691,4e-5 10.1775,1.04449 13.82519,3.13333 4.60816,2.61314 6.91236,6.46701 6.9126,11.56161 -2.4e-4,4.57246 -1.94409,8.13183 -5.83154,10.67813 -3.88793,2.54635 -8.85668,3.81951 -14.90625,3.81949 -4.70237,2e-5 -8.66184,-1.02847 -11.87842,-3.08549 -3.21701,-2.05696 -4.8254,-4.29335 -4.82519,-6.70915 -2.1e-4,-4.70394 2.87967,-7.05592 8.63964,-7.05597 4.32107,5e-5 6.48171,1.40426 6.48194,4.21266 -2.3e-4,3.46224 -2.30442,5.06278 -6.9126,4.80165 0.38357,0.45647 0.91092,1.10924 1.58203,1.95832 1.92166,1.56868 4.22585,2.35301 6.9126,2.35299 4.22438,2e-5 7.8484,-1.01253 10.87207,-3.03765 3.0232,-2.02508 4.53492,-4.67006 4.53516,-7.93498 -2.4e-4,-3.33061 -1.39184,-6.04138 -4.17481,-8.1323 -2.78344,-2.09083 -6.33568,-3.13627 -10.65674,-3.13632 -2.97385,5e-5 -7.53391,0.68672 -13.68017,2.05999 -13.24825,3.06958 -24.52753,4.60436 -33.83789,4.60431 -6.52752,5e-5 -12.86296,-1.20883 -19.00635,-3.62664 -7.9689,-3.19905 -13.20132,-7.83626 -15.69727,-13.91162 -2.39955,5.94381 -7.63197,10.51623 -15.69726,13.71728 -6.24036,2.54736 -12.81604,3.82103 -19.72705,3.82098 -11.61631,5e-5 -22.65683,-1.40417 -33.12159,-4.21264 -5.95026,-1.63439 -10.46197,-2.45161 -13.53515,-2.45166 -4.51178,5e-5 -8.1358,0.98021 -10.87207,2.94049 -2.73638,1.96036 -4.10454,4.73641 -4.10449,8.32813 -5e-5,3.26492 1.41645,5.9099 4.24951,7.93498 2.83295,2.02512 6.40863,3.03767 10.72705,3.03765 4.60833,2e-5 7.58489,-1.43708 8.92969,-4.31131 -4.60847,0.26113 -6.91266,-1.14309 -6.9126,-4.21266 -6e-5,-3.20106 2.15911,-4.8016 6.47754,-4.80165 5.66594,5e-5 8.49894,2.35203 8.49902,7.05597 -8e-5,2.54735 -1.48836,4.83257 -4.46484,6.85565 -3.36042,2.22046 -7.53669,3.33068 -12.52881,3.33066 -5.37603,2e-5 -9.93609,-1.14209 -13.68018,-3.42633 -4.41508,-2.74463 -6.6226,-6.56561 -6.62256,-11.46296 -4e-5,-4.76772 2.01559,-8.49103 6.04688,-11.16995 3.64741,-2.34995 8.39936,-3.52495 14.25586,-3.52499 4.03118,4e-5 8.15911,0.78338 12.38379,2.34999 l 0.7207,-0.39166 c -24.28716,-17.89698 -41.47122,-26.84549 -51.55225,-26.84556 -4.79884,7e-5 -8.75831,1.02907 -11.87841,3.08698 -3.12013,2.05806 -4.68019,4.78527 -4.68018,8.18164 -1e-5,5.42158 3.59911,8.13235 10.79736,8.13229 2.11229,6e-5 3.50535,-0.65371 4.1792,-1.96132 -2.30568,-0.52216 -3.45851,-1.79582 -3.45849,-3.82098 -2e-5,-2.93793 2.2075,-4.40692 6.62256,-4.40699 2.30563,7e-5 4.25021,0.58756 5.83374,1.7625 1.58346,1.17506 2.37521,2.84088 2.37524,4.99748 -3e-5,2.22049 -1.27152,4.13048 -3.81445,5.72998 -2.543,1.5996 -5.68655,2.39937 -9.43067,2.39933 -7.39454,4e-5 -12.57862,-1.5995 -15.55224,-4.79866 -2.20899,-2.35193 -3.31348,-5.0298 -3.31348,-8.03363 0,-4.50658 2.03979,-8.0824 6.11938,-10.72747 4.07958,-2.64491 9.47973,-3.96741 16.20044,-3.96748 10.75192,7e-5 22.41646,4.47383 34.99366,13.42128 3.55072,2.61316 9.07024,6.62948 16.55859,12.04896 l 0.43066,-0.39166 c -1.43855,-2.67683 -2.15778,-5.87693 -2.15771,-9.6003 -7e-5,-3.20103 1.15129,-6.14002 3.4541,-8.81697 3.64738,-4.24546 9.12003,-6.36823 16.41797,-6.36831 4.99209,8e-5 9.36025,1.1103 13.10449,3.33066 3.74403,2.22051 5.6161,5.02893 5.61621,8.4253 -1.2e-4,2.80849 -1.20128,5.25815 -3.60351,7.34897 -2.58995,2.28626 -5.94883,3.42937 -10.07666,3.42931 -2.97666,6e-5 -5.42514,-0.63677 -7.34546,-1.91049 -1.9205,-1.2736 -2.8807,-2.56421 -2.88062,-3.87181 -8e-5,-3.65748 1.87198,-5.48625 5.61621,-5.48631 3.84073,6e-5 5.76114,1.56772 5.76123,4.70298 -0.0968,0.71961 -0.24179,1.50393 -0.43506,2.35298 2.49599,6e-5 4.48818,-0.66966 5.97657,-2.00916 1.48817,-1.33937 2.23231,-3.02164 2.23242,-5.0468 -1.1e-4,-2.1546 -1.39171,-4.04864 -4.1748,-5.68215 -2.78331,-1.63336 -5.90342,-2.45008 -9.36036,-2.45015 -4.32137,7e-5 -7.7286,0.84918 -10.22168,2.54732 -3.26668,2.2225 -4.89998,5.48837 -4.8999,9.79763 -8e-5,5.48736 1.87199,9.70001 5.61621,12.63795 5.18546,4.11603 13.3461,6.17402 24.48194,6.17397 9.21668,5e-5 16.94518,-2.35194 23.18554,-7.05596 5.08581,-3.72128 7.62877,-8.52092 7.62891,-14.39896 -1.4e-4,-6.729 -3.83949,-10.09354 -11.51807,-10.09362 -4.41516,8e-5 -6.62268,1.43718 -6.62256,4.31132 -1.2e-4,2.15672 1.29481,3.46327 3.88477,3.91964 -1.2e-4,-2.0908 1.10437,-3.13624 3.31348,-3.13631 2.68639,7e-5 4.02965,1.14318 4.02978,3.42932 -1.3e-4,0.98072 -0.47913,1.86271 -1.43701,2.64599 -1.24818,0.84917 -2.83313,1.27372 -4.75488,1.27366 -2.49622,6e-5 -4.72791,-0.63677 -6.69507,-1.9105 -1.9674,-1.27359 -2.95104,-2.98775 -2.95093,-5.14248 -1.1e-4,-2.54725 1.15125,-4.63813 3.4541,-6.27263 2.20887,-1.43504 4.80164,-2.1526 7.77832,-2.15267 8.63952,7e-5 13.91881,2.97096 15.83789,8.91264 2.4022,-5.94168 7.63462,-8.91257 15.69727,-8.91264 7.96858,7e-5 11.95295,2.80851 11.95312,8.4253 -1.7e-4,2.87229 -1.58513,4.92928 -4.75488,6.17098 -1.632,0.58806 -3.26383,0.88206 -4.89551,0.882 -4.12808,6e-5 -6.19205,-1.30649 -6.19189,-3.91965 -1.6e-4,-2.28614 1.29623,-3.42925 3.88916,-3.42932 2.20882,7e-5 3.31331,0.91495 3.31348,2.74465 2.68636,-0.32682 4.02962,-1.50281 4.02978,-3.52798 -1.6e-4,-2.87414 -2.44792,-4.31124 -7.34326,-4.31132 -2.97672,8e-5 -5.32926,0.58807 -7.05762,1.76399 -2.49624,1.82984 -3.74429,4.60638 -3.74414,8.32963 -1.5e-4,7.4447 3.98423,13.15923 11.95313,17.14361 5.85628,2.87425 11.90461,4.31136 18.14502,4.31131 11.23223,5e-5 19.48808,-1.99216 24.76757,-5.97664 3.9373,-3.06949 5.90605,-7.34792 5.90625,-12.83528 -2e-4,-3.98437 -1.39254,-7.03796 -4.177,-9.1608 -2.78487,-2.12269 -6.38472,-3.18408 -10.79956,-3.18415 -3.45722,7e-5 -6.57807,0.81679 -9.36255,2.45015 -2.78485,1.63351 -4.17718,3.52755 -4.177,5.68215 -1.8e-4,2.28627 0.86408,4.08216 2.59277,5.38765 1.44123,1.11227 3.16974,1.66837 5.18555,1.66831 l 0,-2.35298 c -1.9e-4,-3.13526 1.92022,-4.70292 5.76123,-4.70298 3.64727,6e-5 5.47099,1.82883 5.47119,5.48631 -2e-4,1.43716 -0.91206,2.76016 -2.73559,3.96898 -1.82393,1.20894 -4.27241,1.81338 -7.34546,1.81332 -4.12812,6e-5 -7.44012,-1.06132 -9.93604,-3.18415 -2.49627,-2.12271 -3.74431,-4.65408 -3.74414,-7.59413 -1.7e-4,-2.61303 1.39143,-5.0298 4.17481,-7.25031 3.74396,-3.00369 8.59258,-4.50557 14.5459,-4.50565 5.27909,8e-5 9.69559,1.24085 13.24951,3.72232 4.41483,3.1354 6.62234,6.95637 6.62256,11.46296 -2.2e-4,3.98448 -0.86447,7.05402 -2.59278,9.20863 l 0.43067,0.39167 c 8.92946,-6.46592 16.51442,-11.72301 22.75488,-15.77129 9.50366,-6.20478 19.10277,-9.30722 28.79736,-9.30729 6.53001,7e-5 11.95505,1.33902 16.27515,4.01682 4.31954,2.67795 6.47945,6.23732 6.47974,10.67813 z M 402.1919,729.96795 c -1.9e-4,3.91867 -2.63983,5.878 -7.91895,5.87798 -5.47283,2e-5 -10.89714,-2.77552 -16.27295,-8.32663 -5.08903,-5.09462 -7.63345,-9.60127 -7.6333,-13.51995 -1.5e-4,-1.11018 0.1434,-1.86063 0.43067,-2.25134 3.07308,3.78714 7.68148,6.64391 13.82519,8.57031 6.14338,1.92647 10.03107,3.08602 11.66309,3.47866 3.93731,1.76401 5.90606,3.821 5.90625,6.17097 z m -31.39453,10.1893 c -1.6e-4,3.72332 -0.5275,6.36831 -1.58205,7.93497 -1.82533,2.93999 -4.89711,4.40998 -9.21532,4.40998 -3.93764,0 -6.9142,-1.30655 -8.92968,-3.91965 -1.72865,-2.22043 -2.59291,-5.02886 -2.59278,-8.4253 -1.3e-4,-1.95932 0.67223,-4.37608 2.01709,-7.25031 l 5.90625,-12.63795 c 0.4774,-1.63241 1.38853,-5.32183 2.73339,-11.0683 0.38365,-0.78528 0.67223,-1.99416 0.86573,-3.62664 0.48033,3.33069 1.68002,8.229 3.59912,14.69494 4.79868,11.29953 7.19809,17.92894 7.19825,19.88826 z m -22.31983,-26.1579 c -1.3e-4,3.65757 -2.44788,8.06655 -7.34326,13.22694 -5.3761,5.74645 -10.89562,8.61966 -16.55859,8.61964 -2.30577,2e-5 -4.25035,-0.53865 -5.83374,-1.616 -1.5836,-1.07731 -2.37535,-2.36741 -2.37525,-3.87031 -10e-5,-2.67686 2.97646,-5.02785 8.92969,-7.05298 11.70984,-3.00373 19.29333,-6.85661 22.75049,-11.55863 0.28698,0.39071 0.43053,1.14116 0.43066,2.25134 z"
       style="font-size:144px;font-style:normal;font-variant:normal;font-weight:bold;font-stretch:normal;text-align:start;line-height:125%;writing-mode:lr-tb;text-anchor:start;fill:#000000;fill-opacity:1;stroke:none;font-family:Ornamental Decoration II;-inkscape-font-specification:Ornamental Decoration II"
       id="path2829" />
  </g>
</svg>
